<?xml version="1.0" encoding="UTF-8"?>
<svg id="Capa_2" data-name="Capa 2" xmlns="http://www.w3.org/2000/svg" viewBox="0 0 408.93 509.92">
  <defs>
    <style>
      .cls-1 {
        fill: #00983a;
        stroke-width: 0px;
      }
    </style>
  </defs>
  <g id="Capa_1-2" data-name="Capa 1">
    <path class="cls-1" d="m116.22,509.92c1.31-11.39,2.72-22.77,3.91-34.17.84-8.02,1.3-16.07,2.11-24.09,1.25-12.4,2.43-24.81,4.2-37.14.34-2.33,3.03-4.64,5.13-6.35,17.76-14.42,30.97-32.52,42.57-51.96,3.13-5.24,6.1-10.57,10.04-15.64.67,9.61,1.29,19.22,2.03,28.83,1.28,16.74,2.68,33.47,3.94,50.21.47,6.26.69,12.53,1.05,18.8.66,11.87,1.22,23.74,2.05,35.6.84,11.98,1.96,23.93,2.96,35.89h-80Z"/>
    <path class="cls-1" d="m88.03,229.05c-.73,26.17,9.22,46.2,29.42,60.87,20.27,14.71,42.73,15.18,66.57,9.58-2.18,2.88-4.21,5.88-6.56,8.62-10.72,12.5-21.41,25.01-32.32,37.34-9.85,11.13-19.6,22.4-30.09,32.91-10.14,10.15-20.92,19.72-31.9,28.98-9.75,8.22-19.86,16.09-30.37,23.3-9.54,6.55-19.7,12.26-31.69,13.38-13.02,1.22-19.69-5.75-20.76-18.12-1.64-18.89,3.08-36.92,10.1-54.13,8.06-19.77,16.48-39.5,26.32-58.42,10.76-20.67,23.22-40.46,35.16-60.5,4.42-7.42,9.48-14.47,14.26-21.68.29-.44.7-.81,1.85-2.1Z"/>
    <path class="cls-1" d="m184.82,295.48c45.7-20.21,54.26-83.94,11.72-116.82,6.89.91,12.42,1.42,17.86,2.4,13.95,2.51,27.93,4.89,41.77,7.94,19.85,4.38,39.69,8.91,59.33,14.13,20.46,5.44,40.48,12.4,59.42,21.94,10.73,5.41,21.31,11.2,29.12,21.02,9.23,11.58,4.43,22.08-6.29,28.95-13.63,8.74-28.95,12.51-44.63,14.78-16.84,2.45-33.76,4.94-50.72,5.9-25.31,1.43-50.69,1.9-76.04,2.03-13.45.07-26.91-1.43-41.55-2.28Z"/>
    <path class="cls-1" d="m87.45,226.3c-3.57-9.36-6.8-17.24-9.61-25.28-6.35-18.13-13.28-36.1-18.53-54.55-6.76-23.77-12.9-47.78-17.73-72.01-2.75-13.79-2.96-28.19-3.09-42.33-.07-6.98,1.57-14.45,4.32-20.89C47.5.28,54.75-2.89,67.21,2.73c7.01,3.17,13.6,7.98,19.31,13.22,25.02,22.97,44.43,50.48,61.71,79.45,13.63,22.84,26.31,46.25,39.4,69.42,2.29,4.06,4.53,8.15,6.5,12.57-21.36-13.3-43.49-15.64-66.32-5.28-22.67,10.29-35.22,28.73-40.37,54.18Z"/>
    <path class="cls-1" d="m155.75,273.91c-22.66-.35-39.41-17.24-39.29-39.8.12-23.26,16.67-39.65,39.72-39.71,22.63-.06,39.59,16,39.8,39.64.2,22.5-16.75,40-40.23,39.87Z"/>
  </g>
</svg>